<svg width="900" height="1950" viewBox="0 0 900 1950" fill="none" xmlns="http://www.w3.org/2000/svg">
  <defs>
    <linearGradient id="sky" x1="450" y1="0" x2="450" y2="1950" gradientUnits="userSpaceOnUse">
      <stop stop-color="#14183D"/>
      <stop offset="0.52" stop-color="#4D4FA9"/>
      <stop offset="1" stop-color="#7E83E8"/>
    </linearGradient>
    <linearGradient id="road" x1="450" y1="970" x2="450" y2="1950" gradientUnits="userSpaceOnUse">
      <stop stop-color="#32365D"/>
      <stop offset="1" stop-color="#171A2D"/>
    </linearGradient>
    <filter id="glow" x="-100%" y="-100%" width="300%" height="300%"><feGaussianBlur stdDeviation="24"/></filter>
  </defs>
  <rect width="900" height="1950" rx="80" fill="url(#sky)"/>
  <circle cx="690" cy="250" r="75" fill="#F5F0D5" opacity=".92"/>
  <circle cx="680" cy="240" r="68" fill="#191C45"/>
  <g opacity=".8">
    <rect x="0" y="730" width="150" height="520" fill="#242850"/>
    <rect x="130" y="630" width="160" height="620" fill="#2C3060"/>
    <rect x="730" y="650" width="170" height="610" fill="#282C58"/>
    <rect x="600" y="780" width="150" height="470" fill="#35396C"/>
    <g fill="#E7DB8C" opacity=".75">
      <rect x="40" y="800" width="24" height="30" rx="4"/><rect x="92" y="855" width="24" height="30" rx="4"/>
      <rect x="174" y="710" width="25" height="32" rx="4"/><rect x="229" y="770" width="25" height="32" rx="4"/>
      <rect x="780" y="735" width="25" height="32" rx="4"/><rect x="835" y="810" width="25" height="32" rx="4"/>
      <rect x="634" y="835" width="25" height="32" rx="4"/><rect x="684" y="895" width="25" height="32" rx="4"/>
    </g>
  </g>
  <path d="M260 1950L365 920H535L650 1950H260Z" fill="url(#road)"/>
  <path d="M450 1790V1600M450 1460V1280M450 1140V980" stroke="#AEB6FF" stroke-width="16" stroke-linecap="round" opacity=".8"/>
  <g>
    <rect x="100" y="820" width="18" height="520" rx="9" fill="#15182F"/>
    <path d="M109 830C109 780 150 750 203 750" stroke="#15182F" stroke-width="18" stroke-linecap="round"/>
    <circle cx="205" cy="753" r="42" fill="#FFE9A8" opacity=".22" filter="url(#glow)"/>
    <circle cx="205" cy="753" r="16" fill="#FFF5C5"/>
    <rect x="785" y="870" width="18" height="470" rx="9" fill="#15182F"/>
    <path d="M794 880C794 830 753 800 700 800" stroke="#15182F" stroke-width="18" stroke-linecap="round"/>
    <circle cx="698" cy="803" r="42" fill="#FFE9A8" opacity=".22" filter="url(#glow)"/>
    <circle cx="698" cy="803" r="16" fill="#FFF5C5"/>
  </g>
  <g>
    <path d="M225 1650C330 1470 520 1370 690 1210" stroke="#7C86FF" stroke-width="20" stroke-linecap="round"/>
    <circle cx="225" cy="1650" r="28" fill="#6571FF" stroke="white" stroke-width="10"/>
    <path d="M690 1170C650 1170 618 1202 618 1242C618 1296 690 1362 690 1362C690 1362 762 1296 762 1242C762 1202 730 1170 690 1170Z" fill="#7068F9" stroke="white" stroke-width="9"/>
    <circle cx="690" cy="1242" r="23" fill="white"/>
  </g>
  <g opacity=".98">
    <circle cx="438" cy="1365" r="67" fill="#14172E"/>
    <path d="M375 1488C375 1415 404 1362 438 1362C472 1362 501 1415 501 1488V1708H375V1488Z" fill="#282C58"/>
    <path d="M370 1530L315 1705M505 1530L558 1705" stroke="#20244A" stroke-width="40" stroke-linecap="round"/>
    <path d="M405 1710L382 1905M474 1710L496 1905" stroke="#171A32" stroke-width="38" stroke-linecap="round"/>
    <path d="M362 1437C389 1404 475 1400 510 1435C494 1357 463 1310 436 1303C406 1309 376 1359 362 1437Z" fill="#171A32"/>
    <rect x="348" y="1465" width="176" height="195" rx="52" fill="#6D75D9" opacity=".55"/>
  </g>
  <g>
    <rect x="108" y="165" width="684" height="240" rx="54" fill="white" fill-opacity=".10" stroke="white" stroke-opacity=".18"/>
    <text x="160" y="245" fill="#B8C4FF" font-size="34" font-family="Arial, sans-serif" font-weight="700">RIMO SERVICE DEMO</text>
    <text x="160" y="320" fill="white" font-size="56" font-family="Arial, sans-serif" font-weight="700">안심 귀가의 모든 순간</text>
    <text x="160" y="370" fill="#D7DBFF" font-size="30" font-family="Arial, sans-serif">목적지 설정부터 보호자 알림까지</text>
  </g>
</svg>
